<!-- icon666.com - MILLIONS vector ICONS FREE --><svg id="Capa_1" enable-background="new 0 0 512 512" viewBox="0 0 512 512" xmlns="http://www.w3.org/2000/svg"><g><path d="m481 91v-30h-90v-61h-30v61h-210v-61h-30v61h-90v30h90v30h-90v30h90v30h-90v120h90v30h-90v30h90v30h-90v121h210v-121h-90v-30h210v30h-90v121h210v-121h-90v-30h90v-30h-90v-30h90v-120h-90v-30h90v-30h-90v-30zm-330 0h210v30h-210zm60 330v61h-150v-61zm-150-150v-60h150v60zm90 60v-30h90v-120h-90v-30h210v30h-90v120h90v30zm300 90v61h-150v-61zm0-210v60h-150v-60z" fill="#ff6849"></path><path d="m481 91v-30h-90v-61h-30v61h-105v30h105v30h-105v30h105v30h-90v120h90v30h-105v30h105v30h-90v121h210v-121h-90v-30h90v-30h-90v-30h90v-120h-90v-30h90v-30h-90v-30zm-30 330v61h-150v-61zm0-210v60h-150v-60z" fill="#fd4b2d"></path></g></svg>