<?xml version="1.0" encoding="iso-8859-1"?>
<!-- Uploaded to: SVG Repo, www.svgrepo.com, Generator: SVG Repo Mixer Tools -->
<svg height="100px" width="100px" version="1.1" id="Layer_1" xmlns="http://www.w3.org/2000/svg" xmlns:xlink="http://www.w3.org/1999/xlink" 
	 viewBox="0 0 512 512" xml:space="preserve">
<path style="fill:#c88464;" d="M313.96,192.973l27.966,10.234c3.773,1.381,7.911,1.381,11.684,0l27.966-10.234
	c11.092-4.06,22.842,4.153,22.842,15.964v29.35c0,31.287-25.363,56.649-56.649,56.649l0,0c-31.287,0-56.649-25.363-56.649-56.649
	v-29.35C291.117,197.124,302.866,188.913,313.96,192.973z"/>
<g>
	<path style="fill:#c88464;" d="M347.768,309.072c-39.031,0-70.786-31.753-70.786-70.785v-29.35c0-17.176,13.958-31.15,31.114-31.15
		c3.648,0,7.256,0.643,10.722,1.911l27.965,10.234c0.636,0.233,1.337,0.233,1.969,0l27.966-10.235
		c3.466-1.268,7.073-1.911,10.721-1.911c17.156,0,31.114,13.974,31.114,31.15v29.35
		C418.553,277.317,386.798,309.072,347.768,309.072z M308.095,206.056c-1.148,0-2.844,0.915-2.844,2.879v29.35
		c0,23.442,19.073,42.514,42.516,42.514c23.443,0,42.514-19.073,42.514-42.514v-29.35c0-1.965-1.696-2.879-2.844-2.879
		c-0.328,0-0.659,0.062-1.006,0.189l-27.965,10.234c-6.874,2.516-14.524,2.517-21.402,0L309.1,206.246
		C308.754,206.119,308.424,206.056,308.095,206.056z"/>
	<path style="fill:#c88464;" d="M409.383,512H237.46c-7.805,0-14.135-6.328-14.135-14.135V390.569
		c0-27.24,8.644-53.109,24.998-74.809c15.806-20.974,38.289-36.702,63.31-44.285c4.112-1.247,8.566-0.554,12.104,1.879
		c7.092,4.872,15.4,7.448,24.031,7.448c8.629,0,16.94-2.575,24.031-7.448c3.541-2.431,7.993-3.121,12.104-1.877
		c25.019,7.584,47.503,23.31,63.308,44.285c16.353,21.702,24.998,47.569,24.998,74.809v67.714c0,7.807-6.33,14.135-14.135,14.135
		s-14.135-6.328-14.135-14.135v-67.714c0-40.612-24.828-76.07-62.4-90.069c-10.33,5.626-21.871,8.57-33.773,8.57
		c-11.903,0-23.443-2.944-33.774-8.57c-37.57,13.999-62.4,49.456-62.4,90.069v93.16H409.38c7.805,0,14.135,6.328,14.135,14.135
		S417.189,512,409.383,512z"/>
	<path style="fill:#c88464;" d="M347.768,161.994c-33.842,0-61.376-27.534-61.376-61.376V61.636c0-7.807,6.33-14.135,14.135-14.135
		c7.805,0,14.135,6.328,14.135,14.135v38.983c0,18.256,14.852,33.106,33.106,33.106s33.104-14.85,33.104-33.106
		c0-7.807,6.33-14.135,14.135-14.135c7.805,0,14.135,6.328,14.135,14.135C409.143,134.462,381.609,161.994,347.768,161.994z"/>
</g>
<polygon style="fill:#c88464;" points="301.049,61.078 347.767,14.135 394.486,61.078 "/>
<g>
	<path style="fill:#c88464;" d="M394.514,75.212c-0.007,0-0.018,0-0.028,0h-93.439c-5.711,0-10.861-3.436-13.052-8.71
		c-2.191-5.274-0.995-11.348,3.033-15.396l46.719-46.941C340.402,1.498,344.008,0,347.768,0s7.366,1.498,10.019,4.164l46.202,46.421
		c2.862,2.587,4.662,6.33,4.662,10.491C408.65,68.883,402.321,75.212,394.514,75.212z M335.061,46.941h25.415l-12.707-12.77
		L335.061,46.941z"/>
	<path style="fill:#c88464;" d="M446.714,329.771c-5.672,0-11.024-3.438-13.189-9.046l-44.472-115.166
		c-2.811-7.282,0.813-15.467,8.095-18.278c7.281-2.814,15.465,0.811,18.28,8.094l44.472,115.166
		c2.811,7.282-0.813,15.467-8.095,18.278C450.129,329.466,448.407,329.771,446.714,329.771z"/>
	<path style="fill:#c88464;" d="M248.822,329.771c-1.693,0-3.415-0.305-5.09-0.953c-7.281-2.811-10.907-10.996-8.095-18.278
		l44.472-115.166c2.811-7.282,10.994-10.91,18.28-8.094c7.281,2.811,10.907,10.996,8.095,18.278l-44.472,115.166
		C259.846,326.334,254.493,329.771,248.822,329.771z"/>
	<path style="fill:#c88464;" d="M121.067,161.994c-33.842,0-61.376-27.534-61.376-61.376V61.636c0-7.807,6.33-14.135,14.135-14.135
		s14.135,6.328,14.135,14.135v38.983c0,18.256,14.852,33.106,33.106,33.106s33.106-14.85,33.106-33.106
		c0-7.807,6.33-14.135,14.135-14.135s14.135,6.328,14.135,14.135C182.444,134.462,154.91,161.994,121.067,161.994z"/>
</g>
<polygon style="fill:#c88464;" points="74.348,61.078 121.067,14.135 167.787,61.078 "/>
<g>
	<path style="fill:#c88464;" d="M167.814,75.212c-0.008,0-0.018,0-0.028,0H74.348c-5.711,0-10.861-3.436-13.052-8.71
		c-2.191-5.274-0.995-11.348,3.033-15.396l46.719-46.941C113.702,1.498,117.307,0,121.067,0c3.76,0,7.366,1.498,10.019,4.164
		l46.202,46.421c2.862,2.587,4.662,6.33,4.662,10.491C181.949,68.883,175.622,75.212,167.814,75.212z M108.36,46.941h25.415
		l-12.707-12.77L108.36,46.941z"/>
	<path style="fill:#c88464;" d="M148.866,512H93.269c-7.291,0-13.387-5.547-14.073-12.806L65.06,349.478
		c-0.734-7.771,4.973-14.667,12.744-15.402c7.781-0.736,14.668,4.971,15.402,12.744l12.928,136.907h29.814l7.422-82.344
		c0.701-7.774,7.568-13.526,15.347-12.809c7.776,0.701,13.51,7.571,12.811,15.346l-8.581,95.21
		C162.287,506.419,156.181,512,148.866,512z"/>
</g>
<path style="fill:#c88464;" d="M151.813,189.059l-30.745,30.745l-30.745-30.745c-20.707,3.822-36.397,21.959-36.397,43.772v115.32
	h134.284v-115.32C188.209,211.018,172.519,192.881,151.813,189.059z"/>
<path style="fill:#c88464;" d="M188.209,362.285H53.926c-7.805,0-14.135-6.328-14.135-14.135V232.831
	c0-28.287,20.172-52.542,47.966-57.673c4.571-0.842,9.273,0.616,12.562,3.906l20.75,20.75l20.75-20.75
	c3.289-3.289,7.984-4.747,12.562-3.906c27.792,5.13,47.966,29.386,47.966,57.673V348.15
	C202.344,355.957,196.015,362.285,188.209,362.285z M68.061,334.015h106.013V232.831c0-12.289-7.343-23.107-18.199-27.845
	L131.062,229.8c-5.521,5.52-14.469,5.52-19.991,0l-24.813-24.814c-10.856,4.738-18.199,15.556-18.199,27.845v101.184H68.061z"/>
</svg>